<svg width="64" height="64" viewBox="0 0 64 64" fill="none" xmlns="http://www.w3.org/2000/svg">
  <rect width="64" height="64" rx="12" fill="url(#bg)" />

  <path
    d="M22 14H40L48 22V47C48 49.2 46.2 51 44 51H22C19.8 51 18 49.2 18 47V18C18 15.8 19.8 14 22 14Z"
    stroke="#5DE6E8"
    stroke-width="3"
    stroke-linejoin="round"
  />

  <path
    d="M40 14V22H48"
    stroke="#5DE6E8"
    stroke-width="3"
    stroke-linejoin="round"
  />

  <path d="M26 28H38" stroke="#5DE6E8" stroke-width="3" stroke-linecap="round" />
  <path d="M26 34H38" stroke="#5DE6E8" stroke-width="3" stroke-linecap="round" />
  <path d="M26 40H34" stroke="#5DE6E8" stroke-width="3" stroke-linecap="round" />

  <circle cx="44" cy="39" r="9" fill="#1256B3" stroke="#5DE6E8" stroke-width="3" />

  <path
    d="M44 33V45"
    stroke="#5DE6E8"
    stroke-width="3"
    stroke-linecap="round"
  />
  <path
    d="M48 36.5C48 34.6 46.3 33.4 44.2 33.4C42 33.4 40.5 34.5 40.5 36.2C40.5 38.2 42.2 39 44.3 39.6C46.4 40.2 48 41 48 43C48 44.8 46.3 46 44 46C41.8 46 40 44.8 40 42.7"
    stroke="#5DE6E8"
    stroke-width="3"
    stroke-linecap="round"
  />

  <defs>
    <linearGradient id="bg" x1="8" y1="8" x2="56" y2="58" gradientUnits="userSpaceOnUse">
      <stop stop-color="#0D4FB3" />
      <stop offset="0.65" stop-color="#0B5CAD" />
      <stop offset="1" stop-color="#5DE6E8" />
    </linearGradient>
  </defs>
</svg>